<svg width="25" height="24" viewBox="0 0 25 24" fill="none" xmlns="http://www.w3.org/2000/svg">
<path d="M6.35 17.1C7.2 16.45 8.15 15.9373 9.2 15.562C10.25 15.1873 11.35 15 12.5 15C13.65 15 14.75 15.1873 15.8 15.562C16.85 15.9373 17.8 16.45 18.65 17.1C19.2333 16.4167 19.6877 15.6417 20.013 14.775C20.3377 13.9083 20.5 12.9833 20.5 12C20.5 9.78333 19.721 7.89567 18.163 6.337C16.6043 4.779 14.7167 4 12.5 4C10.2833 4 8.396 4.779 6.838 6.337C5.27933 7.89567 4.5 9.78333 4.5 12C4.5 12.9833 4.66267 13.9083 4.988 14.775C5.31267 15.6417 5.76667 16.4167 6.35 17.1ZM12.5 13C11.5167 13 10.6873 12.6627 10.012 11.988C9.33733 11.3127 9 10.4833 9 9.5C9 8.51667 9.33733 7.68733 10.012 7.012C10.6873 6.33733 11.5167 6 12.5 6C13.4833 6 14.3127 6.33733 14.988 7.012C15.6627 7.68733 16 8.51667 16 9.5C16 10.4833 15.6627 11.3127 14.988 11.988C14.3127 12.6627 13.4833 13 12.5 13ZM12.5 22C11.1167 22 9.81667 21.7373 8.6 21.212C7.38333 20.6873 6.325 19.975 5.425 19.075C4.525 18.175 3.81267 17.1167 3.288 15.9C2.76267 14.6833 2.5 13.3833 2.5 12C2.5 10.6167 2.76267 9.31667 3.288 8.1C3.81267 6.88333 4.525 5.825 5.425 4.925C6.325 4.025 7.38333 3.31233 8.6 2.787C9.81667 2.26233 11.1167 2 12.5 2C13.8833 2 15.1833 2.26233 16.4 2.787C17.6167 3.31233 18.675 4.025 19.575 4.925C20.475 5.825 21.1873 6.88333 21.712 8.1C22.2373 9.31667 22.5 10.6167 22.5 12C22.5 13.3833 22.2373 14.6833 21.712 15.9C21.1873 17.1167 20.475 18.175 19.575 19.075C18.675 19.975 17.6167 20.6873 16.4 21.212C15.1833 21.7373 13.8833 22 12.5 22Z" fill="#B6B6B6"/>
</svg>
