<svg id="Layer_2" data-name="Layer 2" xmlns="http://www.w3.org/2000/svg" viewBox="0 0 182.58 179.91"><defs><style>.cls-1{fill:#00aeef;}.cls-2{fill:none;stroke:#fff;stroke-linecap:round;stroke-linejoin:round;stroke-width:17px;}</style></defs><path class="cls-1" d="M388.93,420.94c0,5-14.33,8.68-15.17,13.44s11.35,13.24,9.68,17.8-16.41,3.19-18.85,7.41,6.13,16.29,3,20-16.5-2.63-20.25.53.23,17.39-4,19.86-14.57-8.12-19.21-6.43-5.7,16.42-10.59,17.27-10.86-12.63-15.85-12.63-11.1,13.47-15.85,12.63-6-15.61-10.59-17.27-15,8.87-19.22,6.43-.27-16.72-4-19.86-17.1,3.23-20.26-.53,5.45-15.78,3-20-17.17-2.77-18.86-7.41,10.54-12.91,9.68-17.8-15.16-8.44-15.16-13.44,14.33-8.67,15.16-13.43-11.34-13.24-9.68-17.8,16.42-3.19,18.86-7.41-6.13-16.29-3-20,16.49,2.63,20.25-.53-.24-17.39,4-19.86,14.57,8.12,19.22,6.43,5.7-16.42,10.59-17.27,10.85,12.63,15.85,12.63,11.09-13.47,15.85-12.63,6,15.61,10.59,17.27,15-8.87,19.22-6.43.27,16.72,4,19.86,17.1-3.23,20.25.53-5.45,15.78-3,20,17.17,2.77,18.86,7.41-10.54,12.91-9.69,17.8S388.93,416,388.93,420.94Z" transform="translate(-206.35 -330.99)"/><polyline class="cls-2" points="52.65 89.27 78.87 115.49 129.93 64.42"/></svg>