<svg width="24" height="24" viewBox="0 0 24 24" fill="none" xmlns="http://www.w3.org/2000/svg">
<path d="M14.625 3.375C14.625 2.85582 14.4711 2.34831 14.1827 1.91663C13.8942 1.48495 13.4842 1.1485 13.0046 0.949817C12.5249 0.751137 11.9971 0.699154 11.4879 0.80044C10.9787 0.901726 10.511 1.15173 10.1439 1.51885C9.77677 1.88596 9.52677 2.35369 9.42548 2.86289C9.3242 3.37209 9.37618 3.89989 9.57486 4.37954C9.77354 4.8592 10.11 5.26917 10.5417 5.55761C10.9734 5.84605 11.4809 6 12 6C12.6962 6 13.3639 5.72344 13.8562 5.23116C14.3485 4.73887 14.625 4.07119 14.625 3.375ZM3.80442 13.1981L8.04661 8.38875C8.29294 8.10943 8.59589 7.88572 8.93533 7.73249C9.27477 7.57925 9.64293 7.5 10.0154 7.5H13.9847C14.3572 7.5 14.7253 7.57925 15.0648 7.73249C15.4042 7.88572 15.7071 8.10943 15.9535 8.38875L20.1957 13.1981C20.4711 13.48 20.6246 13.8589 20.6229 14.253C20.6212 14.6471 20.4645 15.0247 20.1866 15.3042C19.9088 15.5836 19.5321 15.7425 19.138 15.7465C18.7439 15.7504 18.3641 15.5991 18.0807 15.3253L15.6563 13.3781L17.5032 20.3981C17.6638 20.7588 17.6758 21.1684 17.5364 21.5378C17.3971 21.9073 17.1177 22.2069 16.7588 22.3717C16.3999 22.5364 15.9905 22.553 15.6195 22.4179C15.2485 22.2827 14.9457 22.0067 14.7769 21.6497L12 16.875L9.22692 21.6562C9.05812 22.0132 8.75535 22.2893 8.38432 22.4244C8.01329 22.5596 7.60393 22.543 7.24505 22.3783C6.88618 22.2135 6.60675 21.9139 6.46739 21.5444C6.32803 21.1749 6.33999 20.7654 6.50067 20.4047L8.34379 13.3781L5.91567 15.3253C5.63224 15.5991 5.25244 15.7504 4.85836 15.7465C4.46427 15.7425 4.08758 15.5836 3.80971 15.3042C3.53184 15.0247 3.37512 14.6471 3.37343 14.253C3.37173 13.8589 3.52521 13.48 3.80067 13.1981H3.80442Z" fill="white"/>
</svg>
