<svg width="24" height="24" viewBox="0 0 24 24" fill="none" xmlns="http://www.w3.org/2000/svg">
<path d="M12 1.92188C11.0253 1.92188 9.92816 2.19281 9.01972 2.73703L9.02066 2.73248C9.01034 2.7398 8.99975 2.74781 8.98939 2.75517C8.70219 2.93002 8.43448 3.13228 8.19612 3.36244C7.08472 4.27055 5.95058 5.45822 5.36628 6.78187C5.75862 6.58711 6.13339 6.33938 6.5105 6.09863C6.16761 6.6848 5.94594 7.31381 5.96075 7.98056C6.23862 7.71103 6.62825 7.28166 7.06962 6.88486C7.15212 7.48359 7.33878 8.14758 7.65509 8.88548L7.73816 9.07945L7.07558 10.2289L8.25003 11.4034L9.06556 10.5878L10.2362 12.3437L10.5882 9.8347L14.9261 12.2274L17.7315 9.42206C18.0588 8.09269 17.849 6.80147 17.3164 5.65988C16.3037 3.4897 14.0416 1.92188 12 1.92188ZM20.3689 2.97741L17.2118 3.87928C17.5499 4.31836 17.8442 4.79569 18.0809 5.30311C18.3142 5.80308 18.4889 6.33427 18.594 6.88575L21.3368 4.86169L18.6375 4.98394L20.3689 2.97741ZM13.8338 4.43086L14.6663 4.56914C14.6663 4.56914 14.6077 4.9283 14.4729 5.32078C14.4055 5.517 14.3199 5.72512 14.1965 5.91825C14.073 6.11137 13.9075 6.30891 13.6335 6.40027C13.3594 6.49158 13.1085 6.4328 12.8938 6.35236C12.6792 6.27192 12.4858 6.1568 12.3141 6.04017C11.9709 5.80711 11.7085 5.55492 11.7085 5.55492L12.2916 4.94498C12.2916 4.94498 12.5141 5.15616 12.7881 5.34225C12.9252 5.43525 13.0737 5.51869 13.1901 5.56228C13.3064 5.60588 13.3756 5.59669 13.3667 5.59964C13.3578 5.60264 13.4186 5.56852 13.4855 5.46384C13.5524 5.35912 13.6211 5.20322 13.6749 5.04666C13.7825 4.7333 13.8338 4.43086 13.8338 4.43086ZM18 10.3466L15.074 13.2725L11.2535 11.1653L10.7639 14.6563L8.93445 11.9123L8.24998 12.5966L6.66669 11.0133L4.20837 12.2426C4.58141 15.1095 5.14587 17.7591 6.26937 19.6605C7.43169 21.6273 9.12308 22.8281 12 22.8281C14.877 22.8281 16.5684 21.6272 17.7306 19.6604C18.8662 17.7386 19.4311 15.0529 19.804 12.1506L18 10.3465V10.3466Z" fill="white"/>
</svg>
