<svg width="24" height="24" viewBox="0 0 24 24" fill="none" xmlns="http://www.w3.org/2000/svg">
<path d="M16.5 2.25V3.75H19.1722L16.641 6.3045C15.7362 5.62133 14.6337 5.25119 13.5 5.25C12.0975 5.25 10.788 5.805 9.79646 6.79725C9.30636 7.28144 8.91726 7.8581 8.65172 8.4938C8.38618 9.1295 8.24948 9.8116 8.24955 10.5005C8.24962 11.1895 8.38646 11.8715 8.65213 12.5072C8.9178 13.1428 9.30702 13.7194 9.79721 14.2035C10.4497 14.856 11.2267 15.3247 12.0937 15.5625C12.1792 15.4973 12.2752 15.429 12.3517 15.3525C12.6661 15.0328 12.892 14.6368 13.0072 14.2035C12.1907 14.1027 11.4315 13.7312 10.851 13.1483C10.143 12.441 9.74996 11.502 9.74996 10.5C9.74996 9.498 10.1437 8.5605 10.8525 7.8525C11.559 7.14225 12.498 6.75 13.5 6.75C14.502 6.75 15.4402 7.14375 16.1475 7.8525C16.4974 8.19879 16.7751 8.61115 16.9643 9.06564C17.1536 9.52012 17.2507 10.0077 17.25 10.5C17.25 11.1488 17.0662 11.7525 16.758 12.3045C16.83 12.6915 16.875 13.098 16.875 13.5C16.875 13.8735 16.8435 14.2425 16.7812 14.6025C16.9312 14.4802 17.0647 14.3415 17.2035 14.2035C18.195 13.2105 18.75 11.9025 18.75 10.5C18.75 9.3525 18.372 8.262 17.6955 7.359L20.25 4.8285V7.5H21.75V2.25H16.5ZM11.9062 8.4375C11.8207 8.50275 11.7247 8.571 11.6482 8.6475C11.3242 8.973 11.1127 9.3675 10.9927 9.79725C11.8102 9.90225 12.5565 10.2592 13.149 10.8517C13.8577 11.559 14.2515 12.498 14.2515 13.4993C14.2515 14.5005 13.8577 15.4387 13.149 16.1467C12.441 16.8577 11.502 17.25 10.5 17.25C9.49796 17.25 8.55971 16.8563 7.85246 16.1475C7.50225 15.8014 7.22441 15.3891 7.03513 14.9346C6.84585 14.48 6.74891 13.9924 6.74996 13.5C6.74996 12.8512 6.93371 12.2475 7.24196 11.6955C7.16666 11.3014 7.12749 10.9012 7.12496 10.5C7.12496 10.1265 7.15646 9.7575 7.21871 9.3975C7.06871 9.51975 6.93596 9.6585 6.79646 9.79725C5.80646 10.788 5.24996 12.0975 5.24996 13.5C5.24996 14.6475 5.62796 15.738 6.30446 16.641L5.03996 17.9062L3.53996 16.4062L2.45996 17.4608L3.95996 18.9608L2.45996 20.4608L3.53996 21.5408L5.03996 20.0408L6.53996 21.5408L7.59371 20.4608L6.09371 18.9608L7.35971 17.6962C8.26358 18.3805 9.36632 18.7505 10.5 18.75C11.9025 18.75 13.212 18.195 14.2035 17.2028C15.195 16.212 15.75 14.9025 15.75 13.5C15.75 12.0975 15.195 10.7895 14.2027 9.7965C13.5502 9.144 12.7732 8.67525 11.9062 8.4375Z" fill="white"/>
</svg>
