<svg width="128" height="128" viewBox="0 0 128 128" fill="none" xmlns="http://www.w3.org/2000/svg">
<path d="M69.09 4.23995C68.01 5.19995 59.61 21.8699 59.61 21.8699L53.36 47.0799L77.68 44.8499C77.68 44.8499 97.91 7.22995 98.32 6.35995C99.05 4.77995 99.44 4.12995 96.65 4.12995C93.86 4.11995 70.1 3.33995 69.09 4.23995Z" fill="#176CC7"/>
<path d="M81.68 43.29C80.47 42.64 44.83 42.08 43.99 43.29C43.23 44.39 43.34 49.42 43.71 50.07C44.08 50.72 56.06 56.29 56.06 56.29L56.05 58.32C56.05 58.32 56.71 59.91 63.39 59.91C70.07 59.91 70.76 58.56 70.76 58.56L70.82 56.51C70.82 56.51 81.31 51.27 81.86 50.81C82.42 50.34 82.89 43.94 81.68 43.29ZM70.7 51.62C70.7 51.62 70.67 50.22 69.98 49.87C69.29 49.52 58.18 49.58 57.24 49.63C56.3 49.68 56.3 51.36 56.3 51.36L48.7 47.66V46.92L77 47.12L77.05 47.96L70.7 51.62Z" fill="#FCC417"/>
<path d="M59.26 51.17C58.32 51.17 57.78 52.15 57.78 53.84C57.78 55.42 58.32 56.75 59.51 56.65C60.49 56.57 60.83 55.07 60.74 53.74C60.65 52.16 60.45 51.17 59.26 51.17Z" fill="#FDFFFF"/>
<path d="M28.98 90.72C28.98 114.68 50.64 125.35 65.04 124.84C80.92 124.27 99.94 111.89 98.79 89.03C97.7 67.37 79.48 57.1 63.7 57.21C45.36 57.34 28.98 69.79 28.98 90.72Z" fill="#FCC417"/>
<path d="M64.53 120.67C64.28 120.67 64.02 120.67 63.77 120.66C56.27 120.41 48.86 117.25 43.44 112C37.64 106.38 34.46 98.78 34.5 90.61C34.59 70.66 52.03 61.41 63.86 61.41H63.96C79.99 61.48 93.15 73.94 93.52 90.83C93.68 98.35 90.6 106.24 84.56 112.18C78.92 117.71 71.44 120.67 64.53 120.67ZM63.84 64.73C53.23 64.73 37.54 73.41 37.5 90.61C37.47 103.47 47.43 116.69 64.02 117.25C70.34 117.45 76.85 115.03 82.11 109.86C87.57 104.49 90.64 97.57 90.53 90.87C90.29 76.34 78.41 64.78 63.99 64.72C63.95 64.72 63.87 64.73 63.84 64.73Z" fill="#FA912C"/>
<path d="M57.82 60.61C57.13 59.66 49.31 59.84 41.92 67.06C34.79 74.03 34.02 80.6 35.39 80.98C36.94 81.41 38.83 74.45 45.36 68.6C51.36 63.24 59.2 62.5 57.82 60.61ZM88.07 86.48C85.66 86.82 88.16 94.04 82.57 102.12C77.72 109.13 72.22 111.67 72.86 113.21C73.72 115.27 82.53 110.14 86.61 101.78C90.31 94.21 89.87 86.22 88.07 86.48Z" fill="#FEFFFA"/>
<path d="M25.5099 3.72005C24.8799 4.30005 48.9699 47.2001 48.9699 47.2001C48.9699 47.2001 53.0099 47.72 62.0299 47.8C71.0499 47.88 75.5199 47.28 75.5199 47.28C75.5199 47.28 56.7899 4.15005 55.6699 3.72005C55.1199 3.50005 47.6999 3.42005 40.4499 3.34005C33.1899 3.25005 26.1099 3.16005 25.5099 3.72005Z" fill="#2E9DF4"/>
<path d="M69.0369 77.8182V104H62.7216V83.7244H62.5682L56.7131 87.304V81.8324L63.169 77.8182H69.0369Z" fill="#FA912C"/>
</svg>
