<svg width="25" height="24" viewBox="0 0 25 24" fill="none" xmlns="http://www.w3.org/2000/svg">
<path d="M6 22H9.5V17C9.5 16.45 9.95 16 10.5 16H14.5C15.05 16 15.5 16.45 15.5 17V22H19C20.66 22 22 20.66 22 19V9.94C22 9 21.56 8.12 20.82 7.55L14.32 2.61C13.25 1.79 11.76 1.79 10.69 2.61L4.18 7.56C3.43 8.13 3 9.01 3 9.95V19.01C3 20.67 4.34 22.01 6 22.01V22Z" fill="#C6BC00"/>
<path d="M12.5 12.5C13.8807 12.5 15 11.3807 15 10C15 8.61929 13.8807 7.5 12.5 7.5C11.1193 7.5 10 8.61929 10 10C10 11.3807 11.1193 12.5 12.5 12.5Z" fill="white"/>
</svg>
