<svg width="24" height="24" viewBox="0 0 24 24" fill="none" xmlns="http://www.w3.org/2000/svg">
<path d="M11.3 8.30002L9.225 6.20002C9.025 6.00002 8.925 5.76669 8.925 5.50002C8.925 5.23336 9.025 5.00002 9.225 4.80002L11.303 2.70002C11.501 2.50002 11.7363 2.40002 12.009 2.40002C12.2823 2.40002 12.521 2.50002 12.725 2.70002L14.8 4.80002C15 5.00002 15.1 5.23336 15.1 5.50002C15.1 5.76669 15 6.00002 14.8 6.20002L12.722 8.30002C12.524 8.50002 12.2887 8.60002 12.016 8.60002C11.7427 8.60002 11.504 8.50002 11.3 8.30002ZM2 20C1.71667 20 1.47933 19.904 1.288 19.712C1.09667 19.52 1.00067 19.2827 1 19V16C1 15.4334 1.196 14.9584 1.588 14.575C1.98 14.1917 2.45067 14 3 14H6.275C6.60833 14 6.925 14.0834 7.225 14.25C7.525 14.4167 7.76667 14.6417 7.95 14.925C8.43333 15.575 9.02933 16.0834 9.738 16.45C10.4467 16.8167 11.2007 17 12 17C12.8167 17 13.5793 16.8167 14.288 16.45C14.9967 16.0834 15.584 15.575 16.05 14.925C16.2667 14.6417 16.521 14.4167 16.813 14.25C17.105 14.0834 17.409 14 17.725 14H21C21.5667 14 22.0417 14.1917 22.425 14.575C22.8083 14.9584 23 15.4334 23 16V19C23 19.2834 22.904 19.521 22.712 19.713C22.52 19.905 22.2827 20.0007 22 20H17C16.7167 20 16.4793 19.904 16.288 19.712C16.0967 19.52 16.0007 19.2827 16 19V17.725C15.4167 18.1417 14.7873 18.4584 14.112 18.675C13.4367 18.8917 12.7327 19 12 19C11.2833 19 10.5833 18.8877 9.9 18.663C9.21667 18.4384 8.58333 18.1174 8 17.7V19C8 19.2834 7.904 19.521 7.712 19.713C7.52 19.905 7.28267 20.0007 7 20H2ZM4 13C3.16667 13 2.45833 12.7084 1.875 12.125C1.29167 11.5417 1 10.8334 1 10C1 9.15002 1.29167 8.43769 1.875 7.86302C2.45833 7.28836 3.16667 7.00069 4 7.00002C4.85 7.00002 5.56267 7.28769 6.138 7.86302C6.71333 8.43836 7.00067 9.15069 7 10C7 10.8334 6.71267 11.5417 6.138 12.125C5.56333 12.7084 4.85067 13 4 13ZM20 13C19.1667 13 18.4583 12.7084 17.875 12.125C17.2917 11.5417 17 10.8334 17 10C17 9.15002 17.2917 8.43769 17.875 7.86302C18.4583 7.28836 19.1667 7.00069 20 7.00002C20.85 7.00002 21.5627 7.28769 22.138 7.86302C22.7133 8.43836 23.0007 9.15069 23 10C23 10.8334 22.7127 11.5417 22.138 12.125C21.5633 12.7084 20.8507 13 20 13Z" fill="white"/>
</svg>
