<svg width="128" height="128" viewBox="0 0 128 128" fill="none" xmlns="http://www.w3.org/2000/svg">
<path d="M69.09 4.23995C68.01 5.19995 59.61 21.8699 59.61 21.8699L53.36 47.0799L77.68 44.8499C77.68 44.8499 97.91 7.22995 98.32 6.35995C99.05 4.77995 99.44 4.12995 96.65 4.12995C93.86 4.11995 70.1 3.33995 69.09 4.23995Z" fill="#176CC7"/>
<path d="M81.68 43.29C80.47 42.64 44.83 42.08 43.99 43.29C43.23 44.39 43.34 49.42 43.71 50.07C44.08 50.72 56.06 56.29 56.06 56.29L56.05 58.32C56.05 58.32 56.71 59.91 63.39 59.91C70.07 59.91 70.76 58.56 70.76 58.56L70.82 56.51C70.82 56.51 81.31 51.27 81.86 50.81C82.42 50.34 82.89 43.94 81.68 43.29ZM70.7 51.62C70.7 51.62 70.67 50.22 69.98 49.87C69.29 49.52 58.18 49.58 57.24 49.63C56.3 49.68 56.3 51.36 56.3 51.36L48.7 47.66V46.92L77 47.12L77.05 47.96L70.7 51.62Z" fill="#FCC417"/>
<path d="M59.26 51.17C58.32 51.17 57.78 52.15 57.78 53.84C57.78 55.42 58.32 56.75 59.51 56.65C60.49 56.57 60.83 55.07 60.74 53.74C60.65 52.16 60.45 51.17 59.26 51.17Z" fill="#FDFFFF"/>
<path d="M28.98 90.72C28.98 114.68 50.64 125.35 65.04 124.84C80.92 124.27 99.94 111.89 98.79 89.03C97.7 67.37 79.48 57.1 63.7 57.21C45.36 57.34 28.98 69.79 28.98 90.72Z" fill="#CC8B59"/>
<path d="M64.53 120.67C64.28 120.67 64.02 120.67 63.77 120.66C56.27 120.41 48.86 117.25 43.44 112C37.64 106.38 34.46 98.78 34.5 90.61C34.59 70.66 52.03 61.41 63.86 61.41H63.96C79.99 61.48 93.15 73.94 93.52 90.83C93.68 98.35 90.6 106.24 84.56 112.18C78.92 117.71 71.44 120.67 64.53 120.67ZM63.84 64.73C53.23 64.73 37.54 73.41 37.5 90.61C37.47 103.47 47.43 116.69 64.02 117.25C70.34 117.45 76.85 115.03 82.11 109.86C87.57 104.49 90.64 97.57 90.53 90.87C90.29 76.34 78.41 64.78 63.99 64.72C63.95 64.72 63.87 64.73 63.84 64.73Z" fill="#722B22"/>
<path d="M57.82 60.61C57.13 59.66 49.31 59.84 41.92 67.06C34.79 74.03 34.02 80.6 35.39 80.98C36.94 81.41 38.83 74.45 45.36 68.6C51.36 63.24 59.2 62.5 57.82 60.61ZM88.07 86.48C85.66 86.82 88.16 94.04 82.57 102.12C77.72 109.13 72.22 111.67 72.86 113.21C73.72 115.27 82.53 110.14 86.61 101.78C90.31 94.21 89.87 86.22 88.07 86.48Z" fill="#FEFFFA"/>
<path d="M25.5099 3.72005C24.8799 4.30005 48.9699 47.2001 48.9699 47.2001C48.9699 47.2001 53.0099 47.72 62.0299 47.8C71.0499 47.88 75.5199 47.28 75.5199 47.28C75.5199 47.28 56.7899 4.15005 55.6699 3.72005C55.1199 3.50005 47.6999 3.42005 40.4499 3.34005C33.1899 3.25005 26.1099 3.16005 25.5099 3.72005Z" fill="#2E9DF4"/>
<path d="M62.8892 104.358C60.8949 104.358 59.1264 104.017 57.5838 103.335C56.0497 102.645 54.8395 101.695 53.9531 100.484C53.0668 99.2741 52.6151 97.8807 52.598 96.304H58.9645C58.9901 96.875 59.1733 97.3821 59.5142 97.8253C59.8551 98.2599 60.3196 98.6009 60.9077 98.848C61.4957 99.0952 62.1648 99.2188 62.9148 99.2188C63.6648 99.2188 64.3253 99.0866 64.8963 98.8224C65.4759 98.5497 65.9276 98.179 66.2514 97.7102C66.5753 97.233 66.733 96.6875 66.7244 96.0739C66.733 95.4602 66.5582 94.9148 66.2003 94.4375C65.8423 93.9602 65.3352 93.5895 64.679 93.3253C64.0313 93.0611 63.2642 92.929 62.3778 92.929H59.8338V88.429H62.3778C63.1534 88.429 63.8352 88.3011 64.4233 88.0455C65.0199 87.7898 65.4844 87.4318 65.8168 86.9716C66.1491 86.5028 66.3111 85.9659 66.3026 85.3608C66.3111 84.7727 66.1705 84.2571 65.8807 83.8139C65.5994 83.3622 65.2031 83.0128 64.6918 82.7656C64.1889 82.5185 63.6051 82.3949 62.9403 82.3949C62.2415 82.3949 61.6065 82.5185 61.0355 82.7656C60.473 83.0128 60.0256 83.3622 59.6932 83.8139C59.3608 84.2656 59.1861 84.7898 59.169 85.3864H53.1222C53.1392 83.8267 53.5739 82.4545 54.4261 81.2699C55.2784 80.0767 56.4375 79.1435 57.9034 78.4702C59.3778 77.7969 61.0568 77.4602 62.9403 77.4602C64.8153 77.4602 66.4645 77.7884 67.8878 78.4446C69.3111 79.1009 70.419 79.9957 71.2116 81.1293C72.0043 82.2543 72.4006 83.5284 72.4006 84.9517C72.4091 86.4261 71.9276 87.6406 70.956 88.5952C69.9929 89.5497 68.7528 90.1378 67.2358 90.3594V90.5639C69.2642 90.8026 70.794 91.4588 71.8253 92.5327C72.8651 93.6065 73.3807 94.9489 73.3722 96.5597C73.3722 98.0767 72.9247 99.4233 72.0298 100.599C71.1435 101.767 69.9077 102.687 68.3224 103.361C66.7457 104.026 64.9347 104.358 62.8892 104.358Z" fill="#E5CAB1"/>
</svg>
