<svg width="24" height="24" viewBox="0 0 24 24" fill="none" xmlns="http://www.w3.org/2000/svg">
<path d="M21 13H13C12.45 13 12 12.55 12 12C12 11.45 12.45 11 13 11H21C21.55 11 22 11.45 22 12C22 12.55 21.55 13 21 13ZM22 5C22 4.45 21.55 4 21 4H13C12.45 4 12 4.45 12 5C12 5.55 12.45 6 13 6H21C21.55 6 22 5.55 22 5ZM22 19C22 18.45 21.55 18 21 18H13C12.45 18 12 18.45 12 19C12 19.55 12.45 20 13 20H21C21.55 20 22 19.55 22 19ZM9.00003 14.5H7.00003V5C7.00003 4.45 6.55003 4 6.00003 4C5.45003 4 5.00003 4.45 5.00003 5V14.5H3.00003C2.15003 14.5 1.68003 15.5 2.24003 16.15L5.24003 19.65C5.64003 20.12 6.36003 20.12 6.76003 19.65L9.76003 16.15C10.32 15.5 9.85003 14.5 9.00003 14.5Z" fill="black"/>
</svg>
